<svg width="276" height="250" viewBox="0 0 276 250" fill="none" xmlns="http://www.w3.org/2000/svg">
<rect x="0.5" y="-7.62939e-05" width="275.5" height="250" rx="50" fill="white"/>
<rect x="0.5" y="-7.62939e-05" width="232.5" height="250" rx="50" fill="#063882"/>
<path fill-rule="evenodd" clip-rule="evenodd" d="M0.5 173.097C43.8159 193.273 109.362 203.191 147 206V178.952C168.052 180.095 202.347 179.08 233 171.85V49.9999C233 22.3857 210.614 -7.62939e-05 183 -7.62939e-05H50.5C22.8858 -7.62939e-05 0.5 22.3857 0.5 49.9999V173.097Z" fill="#0077FF"/>
<line x1="30.3439" y1="83.3029" x2="74.0461" y2="135.856" stroke="white" stroke-width="10"/>
<line y1="-5" x2="68.3499" y2="-5" transform="matrix(-0.639388 0.768884 0.768884 0.639388 78.499 86.4999)" stroke="white" stroke-width="10"/>
<path d="M202.5 113C202.5 127.635 190.636 139.5 176 139.5C161.364 139.5 149.5 127.635 149.5 113C149.5 98.3644 161.364 86.4999 176 86.4999C190.636 86.4999 202.5 98.3644 202.5 113Z" stroke="white" stroke-width="10"/>
<path d="M133.5 102.046C133.5 95.946 128.31 91.0001 121.91 91.0001C117.126 91.0001 113.017 93.7639 111.25 97.7083C109.482 93.7639 105.373 91.0001 100.587 91.0001C94.1912 91.0001 88.9995 95.946 88.9995 102.046C88.9995 119.767 111.25 131.5 111.25 131.5C111.25 131.5 133.5 119.767 133.5 102.046Z" fill="white"/>
</svg>
