<svg width="25" height="24" viewBox="0 0 25 24" fill="none" xmlns="http://www.w3.org/2000/svg">
<path d="M19.2428 19H20.7377C21.8422 19 22.8046 18.076 22.4537 17.0286C21.9189 15.4325 20.6032 14.4672 18.2904 14.1329M15.2378 10.8645C15.5288 10.9565 15.8621 11 16.2377 11C17.9043 11 18.7377 10.1429 18.7377 8C18.7377 5.85714 17.9043 5 16.2377 5C15.8621 5 15.5288 5.04354 15.2378 5.13552M10.2377 14C13.8511 14 15.7772 15.0095 16.4537 17.0286C16.8046 18.076 15.8422 19 14.7377 19H5.73767C4.6331 19 3.67078 18.076 4.02168 17.0286C4.69814 15.0095 6.62422 14 10.2377 14ZM10.2377 11C11.9043 11 12.7377 10.1429 12.7377 8C12.7377 5.85714 11.9043 5 10.2377 5C8.571 5 7.73767 5.85714 7.73767 8C7.73767 10.1429 8.571 11 10.2377 11Z" stroke="black" stroke-width="2" stroke-linecap="round" stroke-linejoin="round"/>
</svg>
